<svg xmlns="http://www.w3.org/2000/svg" xmlns:xlink="http://www.w3.org/1999/xlink" viewBox="0,0,256,256" width="53px" height="53px" fill-rule="nonzero"><g fill="none" fill-rule="nonzero" stroke="none" stroke-width="1" stroke-linecap="butt" stroke-linejoin="miter" stroke-miterlimit="10" stroke-dasharray="" stroke-dashoffset="0" font-family="none" font-weight="none" font-size="none" text-anchor="none" style="mix-blend-mode: normal"><g transform="scale(3.76471,3.76471)"><path d="M62.01192,15.23724v38.57035c0,1.97542 -1.59851,3.57417 -3.57417,3.57417h-48.87549c-1.97566,0 -3.57417,-1.59875 -3.57417,-3.57417v-38.57035z" fill="#f2e6ff"></path><path d="M62.01192,15.23401v-5.14934c0,-1.97542 -1.59851,-3.57417 -3.57417,-3.57417l-48.87549,-0.0097c-1.97566,0 -3.57417,1.60845 -3.57417,3.57369v5.15952z" fill="#c079e4"></path><path d="M18.71421,10.86741c0,0.86103 -0.68914,1.55017 -1.55017,1.55017c-0.86156,0 -1.55043,-0.68914 -1.55043,-1.55017c0,-0.86156 0.68888,-1.55017 1.55043,-1.55017c0.86103,0 1.55017,0.68861 1.55017,1.55017z" fill="#f2e6ff"></path><path d="M13.24525,10.86741c0,0.86103 -0.69965,1.55017 -1.55017,1.55017c-0.86129,0 -1.56121,-0.68914 -1.56121,-1.55017c0,-0.86156 0.69992,-1.55017 1.56121,-1.55017c0.85052,0 1.55017,0.68861 1.55017,1.55017z" fill="#f2e6ff"></path><path d="M24.19368,10.86741c0,0.86103 -0.69965,1.55017 -1.56095,1.55017c-0.85052,0 -1.55017,-0.68914 -1.55017,-1.55017c0,-0.86156 0.69965,-1.55017 1.55017,-1.55017c0.86129,0 1.56095,0.68861 1.56095,1.55017z" fill="#f2e6ff"></path><path d="M37.35939,9.75019c-0.61298,0 -1.11722,0.49629 -1.11722,1.11722c0,0.62055 0.50425,1.11722 1.11722,1.11722h19.38174c0.62074,0 1.12498,-0.49667 1.12498,-1.11722c0,-0.62093 -0.50425,-1.11722 -1.12498,-1.11722z" fill="#f2e6ff"></path><g><rect x="13.461" y="29.585" width="41.078" height="28.726" fill="#fdc72e"></rect><path d="M34.18845,40.59593v14.44315c0,0.63913 -0.51812,1.15725 -1.15725,1.15725h-14.44132c-0.63914,0 -1.15726,-0.51812 -1.15726,-1.15725v-14.44315c0,-0.63914 0.51812,-1.15726 1.15726,-1.15726h14.44132c0.63913,0 1.15725,0.51812 1.15725,1.15726z" fill="#f2e6ff"></path><path d="M19.65663,41.33908h4.82675c0.21305,0 0.38575,0.17271 0.38575,0.38575v4.82675c0,0.21304 -0.17271,0.38575 -0.38575,0.38575h-4.82675c-0.21304,0 -0.38575,-0.17271 -0.38575,-0.38575v-4.82675c0,-0.21305 0.17271,-0.38575 0.38575,-0.38575z" fill="#c079e4"></path><path d="M32.35019,41.72483v4.82675c0,0.21304 -0.17271,0.38575 -0.38575,0.38575h-4.82677c-0.21305,0 -0.38575,-0.17271 -0.38575,-0.38575v-4.82675c0,-0.21305 0.17271,-0.38575 0.38575,-0.38575h4.82677c0.21305,0 0.38575,0.17271 0.38575,0.38575z" fill="#c079e4"></path><path d="M19.65663,48.69768h4.82675c0.21305,0 0.38575,0.17271 0.38575,0.38575v4.82674c0,0.21305 -0.17271,0.38575 -0.38575,0.38575h-4.82675c-0.21304,0 -0.38575,-0.17271 -0.38575,-0.38575v-4.82674c0,-0.21305 0.17271,-0.38575 0.38575,-0.38575z" fill="#c079e4"></path><path d="M27.13767,48.69768h4.82677c0.21305,0 0.38575,0.17271 0.38575,0.38575v4.82674c0,0.21305 -0.17271,0.38575 -0.38575,0.38575h-4.82677c-0.21305,0 -0.38575,-0.17271 -0.38575,-0.38575v-4.82674c0,-0.21305 0.17271,-0.38575 0.38575,-0.38575z" fill="#c079e4"></path><path d="M58.87907,31.62334v2.97027c0,1.71658 -1.3926,3.10918 -3.11304,3.10918c-1.71658,0 -3.10918,-1.39261 -3.10918,-3.10918v-2.97027z" fill="#c079e4"></path><path d="M52.65684,31.62334v2.97027c0,1.71658 -1.39251,3.10918 -3.10914,3.10918c-1.71662,0 -3.10913,-1.39261 -3.10913,-3.10918v-2.97027z" fill="#cfcfff"></path><path d="M46.43857,31.62334v2.97027c0,1.71658 -1.3926,3.10918 -3.10918,3.10918c-1.71658,0 -3.10918,-1.39261 -3.10918,-3.10918v-2.97027z" fill="#c079e4"></path><path d="M40.2202,31.62334v2.97027c0,1.71658 -1.39251,3.10918 -3.10914,3.10918c-1.72049,0 -3.10913,-1.39261 -3.10913,-3.10918v-2.97027z" fill="#cfcfff"></path><path d="M15.34307,31.62334h6.21837v2.97027c0,1.71658 -1.39261,3.10918 -3.10918,3.10918c-1.71658,0 -3.10918,-1.39261 -3.10918,-3.10918v-2.97027z" fill="#c079e4"></path><path d="M34.00193,31.62334v2.97027c0,1.71658 -1.3926,3.10918 -3.11304,3.10918c-1.71658,0 -3.10918,-1.39261 -3.10918,-3.10918v-2.97027z" fill="#c079e4"></path><path d="M9.12093,31.62334h6.22213v2.97027c0,1.71658 -1.39256,3.10918 -3.10914,3.10918c-1.72049,0 -3.113,-1.39261 -3.113,-3.10918z" fill="#cfcfff"></path><path d="M27.7797,31.62334v2.97027c0,1.71658 -1.39251,3.10918 -3.10914,3.10918c-1.71662,0 -3.10913,-1.39261 -3.10913,-3.10918v-2.97027z" fill="#cfcfff"></path><path d="M58.87907,31.62334h-6.22223l-3.25186,-8.38624h5.13438z" fill="#c079e4"></path><path d="M52.65684,31.62334h-6.21827l-2.16797,-8.38624h5.13438z" fill="#cfcfff"></path><path d="M46.43857,31.62334h-6.21836l-1.08394,-8.38624h5.13433z" fill="#c079e4"></path><path d="M40.2202,31.62334h-6.21827v-8.38624h5.13433z" fill="#cfcfff"></path><path d="M34.00193,23.23709v8.38624h-6.22223l1.08399,-8.38624z" fill="#c079e4"></path><path d="M28.86369,23.23709l-1.08399,8.38624h-6.21827l2.16788,-8.38624z" fill="#cfcfff"></path><path d="M23.72931,23.23709l-2.16788,8.38624h-6.21837l3.25191,-8.38624z" fill="#c079e4"></path><path d="M18.59497,23.23709l-3.25191,8.38624h-6.22213l4.33971,-8.38624z" fill="#cfcfff"></path><path d="M55.19617,20.4381v2.41281c0,0.21413 -0.17358,0.38771 -0.38771,0.38771h-41.61699c-0.21413,0 -0.38771,-0.17358 -0.38771,-0.38771v-2.41281c0,-0.21413 0.17358,-0.38771 0.38771,-0.38771h41.61699c0.21413,0 0.38771,0.17359 0.38771,0.38771z" fill="#4f5d99"></path><path d="M55.19617,58.69868v2.41281c0,0.21413 -0.17358,0.38771 -0.38771,0.38771h-41.61699c-0.21413,0 -0.38771,-0.17358 -0.38771,-0.38771v-2.41281c0,-0.21413 0.17358,-0.38771 0.38771,-0.38771h41.61699c0.21413,0 0.38771,0.17358 0.38771,0.38771z" fill="#4f5d99"></path><g><path d="M50.41179,40.21018v18.09945h-12.25148v-18.09945c0,-0.42609 0.34541,-0.7715 0.7715,-0.7715h10.70848c0.42609,0 0.7715,0.34541 0.7715,0.7715z" fill="#f2e6ff"></path><path d="M48.41357,42.25845v5.94064c0,0.42609 -0.34541,0.7715 -0.7715,0.7715h-6.71205c-0.42609,0 -0.7715,-0.34541 -0.7715,-0.7715v-5.94064c0,-0.42609 0.34541,-0.7715 0.7715,-0.7715h6.71205c0.42609,0 0.7715,0.34541 0.7715,0.7715z" fill="#c079e4"></path><path d="M48.41357,51.79046v6.51917h-8.25505v-6.51917c0,-0.42609 0.34541,-0.7715 0.7715,-0.7715h6.71205c0.42609,0 0.7715,0.34541 0.7715,0.7715z" fill="#c079e4"></path></g></g><g fill="#ffffff" opacity="0.2"><path d="M10.40845,6.5008l18.49446,54.9984h18.62382l-18.50593,-54.9984z"></path><path d="M55.19154,58.69534v2.41992c0,0.20996 -0.16992,0.37988 -0.38013,0.37988h-2.5l-15.55981,-46.25977l-2.94019,-8.72998h5.29004l2.93994,8.72998l14.17017,42.1499h-1.67017v0.93018h0.27002c0.21021,0 0.38013,0.16992 0.38013,0.37988z"></path></g></g></g></svg>