<svg xmlns="http://www.w3.org/2000/svg"  viewBox="0 0 68 68" width="68px" height="68px"><polygon fill="#fff" points="14.6478081,32.5766029 14.6388674,32.5766029 14.6299257,29.0125389"/><path fill="#fff" d="M47.7661095,5.0560226c2.3153381-1.336762,4.1978874-0.2640872,4.2054291,2.3965702l0.0101089,3.5649948 l-37.3382874,21.557272l-0.010107-3.5649948c-0.0075426-2.6606579,1.862627-5.8999653,4.1781216-7.2368164L47.7661095,5.0560226z"/><path fill="#fff" d="M14.6332512,29.0098648l0.010107,3.5649948l37.3382874-21.557272l0.0808334,30.4528141 c0.0075455,2.6606369-1.8627815,5.9000359-4.1781197,7.2367973L18.9296246,65.4242249 c-2.3154926,1.336853-4.1978874,0.2640839-4.20543-2.3965492L14.6332512,29.0098648z"/><path fill="#e9edf4" d="M52.0662117,41.4668503c0,2.6640053-1.8627968,5.9071121-4.1792221,7.2391167L18.9305363,65.4235001 c-2.316658,1.3416061-4.1987801,0.2605667-4.2084417-2.3937759l-0.0193224-5.4534302 c11.6115665,3.5423241,25.2211933-3.4168968,31.5818119-16.7175331 c4.1214867-8.6097031,4.2567482-19.8634453,1.1198006-27.2087173l4.5751076-2.6350775L52.0662117,41.4668503z"/><path fill="#ffd63c" d="M10.5082331,60.5451698c0,1.3219833,0.4646988,2.2509689,1.2239571,2.6886864l4.2107983,2.4833755 c-0.7505398-0.4376526-1.2147665-1.3666382-1.2147665-2.6886864l-0.0893106-30.4519463v-0.0020027l-4.2178679-2.473362 L10.5082331,60.5451698z"/><path fill="#f4c531" d="M10.4102039,26.5291023l0.0108395,3.5721321l4.2178679,2.473362l-0.008955-3.5620575 c0-1.1439533,0.359128-2.3893547,0.9359951-3.5499821l-4.223052-2.4765434 C10.7679176,24.1446953,10.4102039,25.3874454,10.4102039,26.5291023z"/><path fill="#ffd63c" d="M46.5331917,2.286201c-0.7682114-0.4466124-1.8222656-0.3840477-2.9833069,0.2859001L14.5906029,19.2937584 c-1.3212795,0.7600842-2.4825535,2.1494064-3.2477036,3.692255l4.223052,2.4765434 c0.7656202-1.54002,1.9250097-2.9263973,3.2444048-3.6854191L47.7696381,5.0555391 c1.1610374-0.6699481,2.2153282-0.732513,2.9833069-0.294796L46.5331917,2.286201z"/><path d="M14.6479445,32.9764633h-0.0087891c-0.2207031,0-0.3994141-0.1782227-0.4003906-0.3989258l-0.0087891-3.5639648 c0-0.2207031,0.1777344-0.4003906,0.3984375-0.4008789c0.0009766,0,0.0019531,0,0.0019531,0 c0.2197266,0,0.3984375,0.1777344,0.4003906,0.3979492l0.0175781,3.5639648c0,0.1064453-0.0419922,0.2084961-0.1171875,0.2841797 C14.8559523,32.9339828,14.7543898,32.9764633,14.6479445,32.9764633z"/><path d="M14.6430616,32.9749985c-0.0693359,0-0.1376953-0.0175781-0.1992188-0.0532227 c-0.1240234-0.0712891-0.2001953-0.2026367-0.2011719-0.3457031l-0.0097656-3.5654297 c-0.0078125-2.7832031,1.9560556-6.1855469,4.3779306-7.5839844L47.5659142,4.7098618 c1.2539063-0.7236326,2.4521484-0.828613,3.3759766-0.296875c0.9179688,0.5283203,1.4257813,1.6074219,1.4296875,3.0385742 l0.0107422,3.5649414c0,0.1430664-0.0761719,0.2758789-0.2001953,0.347168L14.843257,32.9212875 C14.780757,32.9574203,14.7123976,32.9749985,14.6430616,32.9749985z M49.6459923,4.8792953 c-0.5058594,0-1.078125,0.1757813-1.6796875,0.5229492l0,0L19.0112267,22.1190414 c-2.2011719,1.2709961-3.9853525,4.3613281-3.97754,6.8896484l0.0078125,2.8745117l36.5400391-21.0961914L51.570797,7.4535141 c-0.0029297-1.1333008-0.3681641-1.9672852-1.0283203-2.347168C50.2788048,4.9544907,49.9760704,4.8792953,49.6459923,4.8792953z M47.7661095,5.0560532h0.0097656H47.7661095z"/><path d="M17.0473595,66.4017563c-0.46875,0-0.9042969-0.1108398-1.2929697-0.3339844 c-0.9179688-0.5283203-1.4257813-1.6074219-1.4306641-3.0390625L14.242671,32.5760727 c0-0.1430664,0.0761719-0.2758789,0.2001953-0.347168l37.3388672-21.5576172 c0.125-0.0722656,0.2763672-0.0717773,0.3994141-0.0004883c0.1240234,0.0712891,0.2001953,0.203125,0.2011719,0.3457031 l0.0800781,30.453125c0.0078125,2.7832031-1.9560547,6.1855469-4.3779297,7.5839844L19.1293907,65.7704086 C18.4028282,66.1898422,17.6938438,66.4017563,17.0473595,66.4017563z M15.0434523,32.8055649l0.0810547,30.2211914 c0.0029297,1.1337891,0.3681641,1.9672852,1.0292978,2.3476563c0.6640625,0.3828125,1.5810547,0.2768555,2.5751953-0.2963867 l28.9550781-16.7167969c2.2011719-1.2709961,3.9853516-4.3613281,3.9775391-6.8896484l-0.078125-29.762207L15.0434523,32.8055649 z"/><path d="M32.6616173,18.3797836c-0.1376953,0-0.2724609-0.0717773-0.3466797-0.199707 c-0.1103516-0.1914063-0.0449219-0.4360352,0.1464844-0.5463867l16.2880859-9.4038086 c0.1904297-0.1108398,0.4355469-0.0458984,0.546875,0.1459961c0.1103516,0.1914063,0.0449219,0.4360352-0.1464844,0.5463867 l-16.2880859,9.4038086C32.798336,18.3626938,32.7299767,18.3797836,32.6616173,18.3797836z"/><path d="M15.9428663,66.1170883c-0.0683594,0-0.1376953-0.0175781-0.2011719-0.0541992 c-0.0068359-0.0043945-0.0136719-0.0083008-0.0205078-0.012207l-4.1923828-2.472168 c-0.9150391-0.5273438-1.4199219-1.6049805-1.4208984-3.0322266l-0.0869141-30.4438477 c0-0.1435547,0.0761719-0.2763672,0.2011719-0.3476563c0.1259766-0.0717773,0.2792969-0.0703125,0.4013672,0.0014648 l4.2177734,2.4731445c0.1220703,0.0717773,0.1972656,0.2026367,0.1982422,0.3442383l0.0888672,30.4541016 c0,1.1210938,0.3554688,1.9487305,1.0009775,2.3349609l0.0166016,0.0097656 c0.1904297,0.1123047,0.2539063,0.3569336,0.1416016,0.546875C16.2133751,66.0462875,16.079586,66.1170883,15.9428663,66.1170883 z M10.8237257,30.8011703l0.0849609,29.7431641c0,0,0,0.0004883,0,0.0009766 c0,1.1298828,0.3632813,1.9614258,1.0234375,2.3417969l2.5830078,1.5234375 c-0.1230469-0.4101563-0.1875-0.8740234-0.1875-1.3818359l-0.0878906-30.2226563L10.8237257,30.8011703z"/><path d="M14.6391554,32.9745102c-0.0703125,0-0.1396484-0.0180664-0.2021484-0.0546875l-4.2177734-2.4731445 c-0.1220703-0.0717773-0.1972656-0.2026367-0.1982422-0.3442383l-0.0107422-3.5722656c0,0,0-0.0004883,0-0.0009766 c0-1.1503906,0.3369141-2.4370117,0.9746094-3.7207031c0.0498047-0.0996094,0.1376953-0.1738281,0.2441406-0.2055664 c0.1044922-0.0317383,0.2207031-0.0185547,0.3164063,0.0380859l4.2226563,2.4765625 c0.1816406,0.1064453,0.250001,0.3349609,0.15625,0.5234375c-0.5849609,1.175293-0.8935547,2.3413086-0.8935547,3.371582 l0.0087891,3.5610352c0,0.1435547-0.0761719,0.2763672-0.2011719,0.3476563 C14.7768507,32.9569321,14.7075148,32.9745102,14.6391554,32.9745102z M10.820796,29.8719711l3.4169922,2.003418 l-0.0078125-2.8618164c0-1.0532227,0.2822266-2.2192383,0.8164063-3.3916016l-3.5283203-2.0693359 c-0.4638672,1.0405273-0.7070313,2.0620117-0.7070313,2.9755859L10.820796,29.8719711z"/><path d="M15.5659132,25.8626938c-0.0703125,0-0.1406431-0.0185547-0.2021484-0.0546875l-4.2226563-2.4765625 c-0.1816406-0.1064453-0.2490234-0.3344727-0.15625-0.5229492c0.8378906-1.6914063,2.0800781-3.0986328,3.40625-3.8613281 L43.3500938,2.2259753c1.2548828-0.7246094,2.4550781-0.824707,3.3837891-0.2856445l0.0009766,0.0004883l4.2207031,2.4746091 c0.1894531,0.1113281,0.2539063,0.3549805,0.1445313,0.5454102C50.9897423,5.151268,50.7465782,5.217186,50.555172,5.1082993 c-0.6738281-0.3837891-1.5917969-0.2792969-2.5849609,0.2939453L19.0102501,22.123436 c-1.1904297,0.6850586-2.3154297,1.9667969-3.0859385,3.5175781c-0.0498047,0.0991211-0.1376953,0.1733398-0.2441406,0.2050781 C15.6430616,25.8573227,15.6039991,25.8626938,15.5659132,25.8626938z M11.8735304,22.8333969l3.5322266,2.0717773 c0.8300791-1.5185547,1.9824228-2.7714844,3.2050791-3.4746094L47.5698204,4.7093735 c0.4667969-0.2695313,0.9267578-0.4526367,1.3681641-0.5493164l-2.6074219-1.5288084 c-0.6689453-0.3876953-1.5849609-0.2866211-2.5800781,0.2871094L14.7905226,19.6400375 C13.6831007,20.2772446,12.633296,21.4291,11.8735304,22.8333969z"/><path d="M18.5667057,25.2671928c0.4903603-0.2831097,0.884531-0.0489464,0.8861103,0.508091 c0.0015984,0.5636368-0.3899765,1.2450142-0.8803387,1.5281239c-0.487566,0.281496-0.8872356,0.0569458-0.8888321-0.506691 C17.682066,26.2396793,18.0791397,25.5486889,18.5667057,25.2671928z"/><path d="M21.8612728,23.3650742c0.4903622-0.2831097,0.8845329-0.0489464,0.8861122,0.5080891 c0.0015965,0.5636387-0.3899784,1.2450142-0.8803406,1.5281258c-0.4875641,0.281496-0.8872337,0.0569439-0.8888321-0.5066929 C20.9766331,24.3375587,21.3737068,23.6465702,21.8612728,23.3650742z"/><path d="M25.1558399,21.4629555c0.4903622-0.2831116,0.8845329-0.0489483,0.8861122,0.5080891 c0.0015984,0.5636368-0.3899784,1.2450142-0.8803387,1.5281239c-0.487566,0.281496-0.8872356,0.0569458-0.888834-0.506691 C24.2712002,22.4354401,24.6682739,21.7444515,25.1558399,21.4629555z"/><g><polygon fill="#fff" points="14.6433582,32.5606041 20.0005798,29.4842415 25.5872498,32.7201843 20.2560062,35.818367"/><path d="M20.2563438,36.2181625c-0.0693359,0-0.1386719-0.0180664-0.2011719-0.0537109l-5.6132822-3.2578125 c-0.1230469-0.0717773-0.1992188-0.2041016-0.1992188-0.347168 c0.0009766-0.1430664,0.0771484-0.2749023,0.2011719-0.3457031l5.3574228-3.0761719 c0.1240044-0.0722656,0.2773438-0.0708008,0.3994141,0.0004883l5.5869141,3.2358398 c0.1240234,0.0712891,0.1992188,0.203125,0.2001953,0.3457031c0,0.1425781-0.0761719,0.2749023-0.1992188,0.3461914 l-5.3310547,3.0981445C20.3950157,36.2000961,20.3256798,36.2181625,20.2563438,36.2181625z M15.4428663,32.5624008 l4.8134775,2.793457l4.5341797-2.6352539l-4.7910156-2.7744141L15.4428663,32.5624008z"/><path fill="#ffd63c" d="M25.5872498,32.7201843l0.0128307,2.3004456 c0.0048294,1.7037354-1.1905098,3.7740898-2.6693268,4.6278839c-1.4826641,0.8560143-2.6858158,0.170433-2.6906471-1.5333023 l0.0158997-2.2968445L25.5872498,32.7201843z"/><path d="M21.7250938,40.4188461c-0.3242188,0-0.6279297-0.0776367-0.8984375-0.2333984 c-0.6337891-0.3647461-0.984375-1.0996094-0.9873047-2.0693359l0.0166016-2.3007813 c0.0009766-0.1416016,0.0771484-0.2719727,0.1992188-0.3427734l5.3310547-3.0981445 c0.1240234-0.0722656,0.2753906-0.0727539,0.3994141-0.0014648c0.1240234,0.0708008,0.2011719,0.2021484,0.2021484,0.3447266 l0.0126953,2.300293c0.0048828,1.859375-1.2548828,4.0449219-2.8691406,4.9765625 C22.6430626,40.2767563,22.164547,40.4188461,21.7250938,40.4188461z M20.6547813,36.0492172l-0.0146484,2.0688477 c0.0019531,0.668457,0.2099609,1.1577148,0.5859375,1.3740234c0.3779297,0.2182617,0.9140625,0.1508789,1.5048828-0.1904297 c1.3662109-0.7880859,2.4736328-2.7084961,2.46875-4.2802734l-0.0087891-1.6083984L20.6547813,36.0492172z"/><polygon fill="#ffd63c" points="20.0005798,29.4842415 25.3586311,26.3859653 30.9184952,29.6220055 25.5872498,32.7201843"/><path d="M25.5873985,33.120018c-0.0693359,0-0.1386719-0.0180664-0.2001953-0.0537109l-5.5869331-3.2358398 c-0.1240044-0.0717773-0.2001762-0.2036133-0.2001762-0.3461914c0-0.1430664,0.0761719-0.2749023,0.2001762-0.3461914 l5.3584175-3.0981445c0.1230469-0.0722656,0.2763672-0.0717773,0.4013672,0.0004883l5.5595703,3.2358398 c0.1230469,0.0717773,0.1992188,0.2036133,0.1992188,0.3457031c0,0.1425781-0.0761719,0.2744141-0.1992188,0.3457031 l-5.3310547,3.0981445C25.7260704,33.1019516,25.6567345,33.120018,25.5873985,33.120018z M20.7993126,29.4847641 l4.7880859,2.7729492l4.5351563-2.6362305l-4.7646484-2.7729492L20.7993126,29.4847641z"/><path fill="#fff" d="M30.9184952,29.6220055l0.0128288,2.3004436c0.0048313,1.7037373-1.1905098,3.7740879-2.6693268,4.627882 c-1.4826622,0.8560181-2.6858158,0.1704369-2.6906452-1.5333023l0.0158978-2.2968445L30.9184952,29.6220055z"/><path d="M27.0571251,37.3207016c-0.3251953,0-0.6279297-0.0776367-0.8984375-0.2333984 c-0.6337891-0.3642578-0.984375-1.0996094-0.9873047-2.0693359l0.015625-2.3007813 c0.0009766-0.1411133,0.0771484-0.2719727,0.1992188-0.3427734l5.3310547-3.0981445 c0.1230469-0.0722656,0.2744141-0.0727539,0.3994141-0.0014648c0.1240234,0.0708008,0.2011719,0.2021484,0.2021484,0.3447266 l0.0126953,2.300293c0.0048828,1.859375-1.2548828,4.0449219-2.8691406,4.9765625 C27.9741173,37.1786118,27.4956017,37.3207016,27.0571251,37.3207016z M25.985836,32.9510727l-0.0136719,2.0688477 c0.0019531,0.668457,0.2099609,1.1577148,0.5859375,1.3740234c0.3779297,0.2182617,0.9130859,0.1508789,1.5039063-0.1899414 c1.3662109-0.7885742,2.4736328-2.7089844,2.46875-4.2807617l-0.0087891-1.6083984L25.985836,32.9510727z"/><g><polygon fill="#fff" points="25.3586311,26.3859653 30.6976681,23.3057499 36.2497406,26.5238247 30.9184952,29.6220055"/><path d="M30.9184532,30.0218735c-0.0693359,0-0.1386719-0.0180664-0.2011719-0.0541992l-5.5595703-3.2358398 c-0.1230469-0.0717773-0.1992188-0.2036133-0.1992188-0.3466797 c0.0009766-0.1425781,0.0771484-0.2744141,0.2001953-0.3457031l5.3388672-3.0805664 c0.125-0.0712891,0.2773438-0.0708008,0.4003906,0.0004883l5.5517578,3.2182617 c0.1240234,0.0717773,0.2001953,0.2036133,0.2001953,0.3461914s-0.0761719,0.2744141-0.1992188,0.3457031 l-5.3310547,3.0981445C31.0571251,30.0038071,30.9877892,30.0218735,30.9184532,30.0218735z M26.1567345,26.3875961 l4.7617188,2.7714844l4.5341797-2.6347656l-4.7548828-2.7568359L26.1567345,26.3875961z"/><g><path fill="#ffd63c" d="M36.2497406,26.5238247l0.0128288,2.3004436 c0.0048294,1.7037373-1.1905098,3.7740898-2.6693268,4.6278839c-1.4826622,0.8560143-2.6858158,0.170433-2.6906471-1.5333023 l0.0158997-2.2968445L36.2497406,26.5238247z"/><path d="M32.3881798,34.2225571c-0.3242188,0-0.6279297-0.0776367-0.8984375-0.2333984 c-0.6337891-0.3642578-0.984375-1.0996094-0.9873047-2.0693359l0.015625-2.3007813 c0.0009766-0.1411133,0.0771484-0.2719727,0.1992188-0.3427734l5.3310547-3.0981445 c0.1240234-0.0722656,0.2753906-0.0727539,0.3994141-0.0014648c0.1240234,0.0708008,0.2011719,0.2021484,0.2021484,0.3447266 l0.0126953,2.300293c0.0048828,1.859375-1.2548828,4.0449219-2.8691406,4.9765625 C33.305172,34.0804672,32.8266563,34.2225571,32.3881798,34.2225571z M31.3168907,29.8529282l-0.0136719,2.0688477 c0.0019531,0.668457,0.2099609,1.1577148,0.5859375,1.3740234c0.3769531,0.2177734,0.9130859,0.1513672,1.5039063-0.1899414 c1.3662109-0.7885742,2.4736328-2.7089844,2.46875-4.2807617l-0.0087891-1.6083984L31.3168907,29.8529282z"/></g></g><g><polygon fill="#ffd63c" points="30.6976681,23.3057499 36.042408,20.21698 41.5809822,23.4256439 36.2497406,26.5238247"/><path d="M36.2495079,26.9237289c-0.0693359,0-0.1386719-0.0180664-0.2001953-0.0537109l-5.5517578-3.2182617 c-0.1240234-0.0717773-0.2001953-0.2036133-0.2001953-0.3466797c0-0.1425781,0.0761719-0.2744141,0.2001953-0.3457031 l5.3447266-3.0883789c0.1230469-0.0722656,0.2773438-0.0712891,0.4003906,0l5.5380859,3.2084961 c0.1240234,0.0717773,0.2001953,0.203125,0.2001953,0.3457031s-0.0761719,0.2749023-0.1992188,0.3461914 l-5.3310547,3.0981445C36.3881798,26.9056625,36.3188438,26.9237289,36.2495079,26.9237289z M31.4965782,23.3060532 l4.7529297,2.7553711l4.5341797-2.6352539L36.0424767,20.6791L31.4965782,23.3060532z"/><g><path fill="#fff" d="M41.5809822,23.4256439l0.0128326,2.3004436 c0.0048294,1.7037373-1.1905098,3.7740879-2.6693268,4.6278839c-1.482666,0.8560162-2.6858177,0.170435-2.6906471-1.5333023 l0.0158997-2.2968445L41.5809822,23.4256439z"/><path d="M37.7192345,31.1244125c-0.3242188,0-0.6279297-0.0776367-0.8984375-0.2333984 c-0.6337891-0.3642578-0.984375-1.0996094-0.9873047-2.0693359l0.015625-2.3007813 c0.0009766-0.1411133,0.0771484-0.2719727,0.1992188-0.3427734l5.3310547-3.0981445 c0.1240234-0.0722656,0.2753906-0.0727539,0.3994141-0.0014648c0.1240234,0.0708008,0.2011719,0.2021484,0.2021484,0.3447266 l0.0136719,2.300293c0.0048828,1.859375-1.2558594,4.0449219-2.8701172,4.9765625 C38.6362267,30.9823227,38.157711,31.1244125,37.7192345,31.1244125z M36.6479454,26.7547836l-0.0136719,2.0688477 c0.0019531,0.668457,0.2099609,1.1577148,0.5859375,1.3740234c0.3779297,0.2182617,0.9130859,0.1508789,1.5039063-0.1899414 c1.3662109-0.7890625,2.4746094-2.7089844,2.4697266-4.2807617l-0.0087891-1.6083984L36.6479454,26.7547836z"/></g></g><g><polygon fill="#fff" points="36.042408,20.21698 41.3852501,17.1367664 46.9122276,20.3274632 41.5809822,23.4256439"/><path d="M41.5805626,23.8255844c-0.0693359,0-0.1386719-0.0180664-0.2001953-0.0537109l-5.5380859-3.2084961 c-0.1240234-0.0717773-0.2001953-0.2036133-0.2001953-0.3466797 c0.0009766-0.1425781,0.0771484-0.2749023,0.2001953-0.3461914l5.3427734-3.0805664 c0.125-0.0712891,0.2753906-0.0717773,0.4003906,0.0004883l5.5273438,3.190918 c0.1230469,0.0712891,0.1992188,0.203125,0.2001953,0.3457031c0,0.1425781-0.0761719,0.2744141-0.1992188,0.3461914 l-5.3320313,3.0981445C41.7192345,23.807518,41.6498985,23.8255844,41.5805626,23.8255844z M36.8422813,20.2181625 l4.7382813,2.7451172l4.5341797-2.6347656l-4.7294922-2.7299805L36.8422813,20.2181625z"/><g><path fill="#ffd63c" d="M46.9122276,20.3274632l0.0128288,2.3004436 c0.0048332,1.7037373-1.1905098,3.7740879-2.6693268,4.6278839c-1.4826622,0.8560162-2.6858139,0.170435-2.6906433-1.5333023 l0.0158958-2.2968445L46.9122276,20.3274632z"/><path d="M43.0502701,28.026268c-0.3241997,0-0.6279106-0.0776367-0.8984184-0.2333984 c-0.6337891-0.3642578-0.984375-1.0996094-0.9873047-2.0693359l0.015625-2.3007813 c0.0009766-0.1411133,0.0771484-0.2719727,0.1992188-0.3427734l5.3320313-3.0981445 c0.1230469-0.0722656,0.2744141-0.0727539,0.3994141-0.0014648c0.1240234,0.0708008,0.2011719,0.2021484,0.2021484,0.3447266 l0.0126953,2.300293c0.0048828,1.859375-1.2558594,4.0449219-2.8701172,4.9765625 C43.9672813,27.8841782,43.4887657,28.026268,43.0502701,28.026268z M41.9790001,23.6566391l-0.0136719,2.0688477 c0.0019531,0.668457,0.2099419,1.1577148,0.5859375,1.3740234c0.3779297,0.2182617,0.9130859,0.1508789,1.5039063-0.1899414 c1.3662109-0.7890625,2.4746094-2.7089844,2.4697266-4.2807617l-0.0087891-1.6083984L41.9790001,23.6566391z"/></g></g><g><polygon fill="#ffd63c" points="46.7275162,14.0498857 51.9816475,11.0175877 57.576046,14.1301384 52.2448006,17.2283192"/><path d="M52.2446251,17.6283188c-0.069355,0-0.1376953-0.0175781-0.1992188-0.0532227l-5.5175781-3.1787109 c-0.1240234-0.0712891-0.2011719-0.2036133-0.2011719-0.3466797s0.0761719-0.2749023,0.2001953-0.3466797 l5.2548828-3.0322266c0.1230469-0.0703125,0.2714844-0.0712891,0.3945313-0.0029297l5.59375,3.112793 c0.1259766,0.0698242,0.2041016,0.2021484,0.2060547,0.3457031c0.0009766,0.144043-0.0751953,0.2773438-0.1992188,0.3496094 l-5.3310547,3.0981445C52.383297,17.6102524,52.313961,17.6283188,52.2446251,17.6283188z M47.5278282,14.0492172 l4.7158203,2.7172852l4.5234375-2.6289063l-4.78125-2.6601563L47.5278282,14.0492172z"/><g><path fill="#fff" d="M57.576046,14.1301384l0.0128288,2.3004436c0.0048294,1.7037373-1.1905098,3.7740879-2.6693268,4.6278839 c-1.4826622,0.8560162-2.6858139,0.170435-2.6906471-1.5333023l0.0158997-2.2968445L57.576046,14.1301384z"/><path d="M53.7143517,21.8290024c-0.3251953,0-0.6279297-0.0776367-0.8984375-0.2333984 c-0.6337891-0.3642578-0.984375-1.0996094-0.9873047-2.0693359l0.015625-2.3007813 c0.0009766-0.1411133,0.0771484-0.2719727,0.1992188-0.3427734l5.3310547-3.0981445 c0.1240234-0.0722656,0.2753906-0.0727539,0.3994141-0.0014648c0.1240234,0.0708008,0.2011719,0.2021484,0.2021484,0.3447266 l0.0136719,2.300293c0.0039063,1.859375-1.2568359,4.0449219-2.8701172,4.9765625 C54.6313438,21.6869125,54.1528282,21.8290024,53.7143517,21.8290024z M52.6430626,17.4593735l-0.0136719,2.0688477 c0.0019531,0.668457,0.2099609,1.1577148,0.5859375,1.3740234c0.3779297,0.2177734,0.9130859,0.1508789,1.5039063-0.1899414 c1.3652344-0.7890625,2.4736328-2.7094727,2.4697266-4.2807617L57.180172,14.823143L52.6430626,17.4593735z"/></g></g><g><polygon fill="#ffd63c" points="41.3852501,17.1367664 46.7261887,14.050849 52.2434731,17.2292824 46.9122276,20.3274632"/><path d="M46.9125938,20.7274399c-0.0693359,0-0.1376953-0.0175781-0.2001953-0.0537109l-5.5273438-3.190918 c-0.1230469-0.0712891-0.2001953-0.203125-0.2001953-0.3461914c0-0.1425781,0.0761719-0.2749023,0.2001953-0.3461914 l5.3408203-3.0859375c0.1230469-0.0722656,0.2763672-0.0717773,0.399395-0.0004883l5.5175972,3.1787109 c0.1240234,0.0712891,0.2001953,0.203125,0.2011719,0.3457031c0,0.1430664-0.0761719,0.2749023-0.1992188,0.3466797 l-5.3310547,3.0981445C47.0512657,20.7093735,46.9819298,20.7274399,46.9125938,20.7274399z M42.1850548,17.1366196 l4.7265625,2.7285156l4.5332031-2.6342773l-4.71875-2.7182617L42.1850548,17.1366196z"/><g><path fill="#fff" d="M52.2434731,17.2292824l0.0128288,2.3004436 c0.0048294,1.7037373-1.1905098,3.7740879-2.6693268,4.6278839c-1.4826622,0.8560162-2.6858139,0.170435-2.6906433-1.5333023 l0.0158958-2.2968445L52.2434731,17.2292824z"/><path d="M48.3813438,24.9281235c-0.3242188,0-0.6279297-0.0776367-0.8984375-0.2333984 c-0.6337891-0.3647461-0.984375-1.0996094-0.9873047-2.0693359l0.0166016-2.3007813 c0.0009766-0.1416016,0.0771484-0.2719727,0.1992188-0.3427734l5.3310547-3.0981445 c0.1230469-0.0722656,0.2744141-0.0727539,0.3994141-0.0014648c0.1240234,0.0708008,0.2011719,0.2021484,0.2021484,0.3447266 l0.0126953,2.300293c0.0048828,1.8588867-1.2548828,4.0444336-2.8691406,4.9765625 C49.2993126,24.7860336,48.820797,24.9281235,48.3813438,24.9281235z M47.3110313,20.5584946l-0.0146484,2.0688477 c0.0019531,0.668457,0.2099609,1.1577148,0.5859375,1.3740234c0.3779297,0.2177734,0.9140625,0.1513672,1.5048828-0.1904297 c1.3662109-0.7885742,2.4736328-2.7089844,2.46875-4.2802734l-0.0087891-1.6083984L47.3110313,20.5584946z"/></g></g></g><g><path d="M35.8354454,40.3666c-0.1035156,0-0.2060547-0.0400391-0.2832031-0.1171875 c-0.1279297-0.1279297-0.1533203-0.3261719-0.0634766-0.4829102l3.4726563-6.0146484 c0.2441406-0.421875,0.5751953-0.7675781,0.9335938-0.9736328c0.4169922-0.2426758,0.8486328-0.2739258,1.1855469-0.0854492 c0.234375,0.1337891,0.3994141,0.3574219,0.4785156,0.6479492c0.1328125,0.487793,0.0126953,1.1274414-0.3222656,1.7114258 l-1.9013672,3.2944336c-0.0351753,0.0605469-0.0859375,0.1113281-0.1464844,0.1459961l-3.1533203,1.8203125 C35.9731407,40.3490219,35.9038048,40.3666,35.8354454,40.3666z M40.5991173,33.370018 c-0.0810547,0-0.1904297,0.034668-0.3046875,0.1010742c0,0,0,0.0004883-0.0009766,0.0004883 c-0.234375,0.1347656-0.4667969,0.3828125-0.6386719,0.6801758l-2.7265625,4.722168l1.7675781-1.0205078l1.8476563-3.2001953 c0.2724609-0.4746094,0.3017578-0.890625,0.2441406-1.1015625c-0.015625-0.0566406-0.0458984-0.1308594-0.1005859-0.1621094 C40.6635704,33.3763657,40.6342735,33.370018,40.5991173,33.370018z M40.0942345,33.1249008h0.0097656H40.0942345z"/><path fill="#fff" d="M41.2177238,40.3651505l-1.1214828,6.7237167 c-0.1341858,0.7942963-0.6826019,1.6261444-1.3199844,1.9941368l-10.1936283,5.8852959 c-0.6375141,0.3680687-1.1935959,0.1739006-1.3269558-0.4659271l-1.15588-5.4088821L41.2177238,40.3651505z"/><path fill="#e9edf4" d="M41.21772,40.3629723l-1.1247635,6.7296982c-0.1261826,0.7951584-0.678978,1.6194382-1.3188896,1.9879265 l-10.1915264,5.8860092c-0.6399155,0.3684883-1.192709,0.1745987-1.328598-0.465435l-0.5622635-2.6375465 c1.4254265,0.0290604,2.9770355-0.1939507,4.547821-0.6885071c5.052084-1.5806122,8.3586674-5.3624535,7.3889675-8.4460831 c-0.0774155-0.242424-0.1744766-0.4751396-0.3004265-0.6981506L41.21772,40.3629723z"/><path d="M27.9741173,55.5536118c-0.1611328,0-0.3154297-0.0317383-0.4580078-0.0957031 c-0.3339844-0.1489258-0.5654297-0.4594727-0.6523438-0.8735352l-1.1552734-5.4072266 c-0.0361328-0.1694336,0.0410156-0.3432617,0.1914063-0.4296875l15.1171875-8.7285156 c0.1337891-0.0786133,0.2998047-0.0712891,0.4277344,0.0175781c0.1279297,0.0878906,0.1923828,0.2416992,0.1669922,0.3945313 l-1.1210938,6.7236328c-0.1542969,0.9140625-0.7773438,1.8491211-1.5146484,2.2749023L28.782711,55.3143539 C28.508297,55.4730453,28.2319298,55.5536118,27.9741173,55.5536118z M26.5522423,49.2948227l1.0947266,5.1240234 c0.0234375,0.1123047,0.0761719,0.2553711,0.1953125,0.309082c0.1298828,0.0571289,0.3242188,0.0180664,0.5400391-0.105957 l10.1933594-5.8852539c0.5292969-0.3051758,1.0126953-1.0419922,1.1259766-1.7143555l0.9814453-5.887207L26.5522423,49.2948227z"/><path d="M28.3090782,44.7123032c-0.0683594,0-0.1367188-0.0175781-0.1982422-0.0522461l-1.9140625-1.090332 c-0.6367188-0.371582-0.703125-1.4072266-0.1533203-2.359375c0.2431641-0.4208984,0.5742188-0.7666016,0.9316406-0.9731445l0,0 c0.4179688-0.2412109,0.8496094-0.2734375,1.1865234-0.0859375l3.4980469,1.9931641 c0.1240234,0.0712891,0.2011719,0.203125,0.2021484,0.3466797c0,0.1430664-0.0761719,0.2758789-0.2001953,0.347168 l-3.1523438,1.8203125C28.4467735,44.694725,28.3784142,44.7123032,28.3090782,44.7123032z M27.680172,40.8285141 c-0.0810547,0-0.1904297,0.034668-0.3046875,0.1010742c0,0,0,0,0,0.0004883 c-0.234375,0.1347656-0.4677734,0.3828125-0.6386719,0.6801758c-0.3505859,0.6064453-0.3164063,1.1635742-0.140625,1.2661133 l1.7119141,0.9750977l2.3496094-1.3569336l-2.8896484-1.6464844 C27.7446251,40.8348618,27.7153282,40.8285141,27.680172,40.8285141z M27.1752701,40.5833969h0.0097847H27.1752701z"/><path d="M35.6704063,48.7108383c-0.0244141,0-0.0488281-0.0019531-0.0742188-0.0068359 c-0.2167969-0.0410156-0.359375-0.25-0.3193359-0.4672852l0.4619141-2.4545898 c0.0410156-0.2163086,0.2490234-0.3598633,0.4677734-0.3188477c0.2167969,0.0410156,0.359375,0.25,0.3193359,0.4667969 l-0.4619141,2.4545898C36.0278282,48.5770493,35.8598595,48.7108383,35.6704063,48.7108383z"/><path d="M32.4936485,50.4579086c-0.0888672,0-0.1777344-0.0292969-0.2519531-0.0893555l-1.7021484-1.3833008 c-0.171875-0.1396484-0.1982422-0.3916016-0.0585938-0.5629883s0.3916016-0.1972656,0.5625-0.0581055l1.7021484,1.3833008 c0.171875,0.1396484,0.1982422,0.3916016,0.0585938,0.5629883 C32.7250938,50.4076157,32.6098595,50.4579086,32.4936485,50.4579086z"/><path fill="#ffd63c" d="M41.2223206,36.8567619c0.8417053-0.4859581,1.5202408-0.0936775,1.5229836,0.8735619 c0.0027428,0.9672585-0.6713562,2.1404877-1.5130615,2.626442l-15.1324501,8.7367249 c-0.8563557,0.4944191-1.5397778,0.1049576-1.5425186-0.8623009c-0.0027428-0.9672394,0.6762409-2.1432877,1.5180759-2.6293221 l2.2332802-1.2893829l3.1529903-1.8203812l4.3742981-2.5255013l3.1529884-1.8203773L41.2223206,36.8567619z"/><g><path d="M25.3998985,49.7093735c-0.2148438,0-0.4160156-0.0517578-0.5976563-0.1557617 c-0.4140625-0.2387695-0.6435547-0.7075195-0.6455078-1.3212891c-0.0029297-1.1108398,0.7519531-2.418457,1.71875-2.9770508 l15.1464844-8.7446289c0,0,0,0,0-0.0004883c0.5351563-0.3076172,1.0585938-0.3481445,1.4765625-0.1079102 c0.4150391,0.2392578,0.6455078,0.7104492,0.6474609,1.3271484c0.0029297,1.1108398-0.75,2.4174805-1.7138672,2.9741211 l-15.131855,8.7363281C25.9897423,49.6190414,25.6831017,49.7093735,25.3998985,49.7093735z M41.4223595,37.2030258 L26.2758751,45.948143c-0.7177734,0.4140625-1.3212891,1.4589844-1.3183594,2.2822266 c0.0009766,0.3115234,0.0898438,0.5410156,0.2441406,0.6298828c0.1601563,0.0917969,0.4150391,0.050293,0.6982422-0.1132813 l15.1318359-8.7363281c0.7148438-0.4125977,1.3164063-1.4560547,1.3134766-2.2792969 c-0.0009766-0.3144531-0.0908203-0.5463867-0.2460938-0.6357422 C41.9438438,37.0057602,41.6967735,37.0448227,41.4223595,37.2030258L41.4223595,37.2030258z"/></g></g></svg>